<?xml version="1.0" encoding="UTF-8"?>
<!DOCTYPE svg PUBLIC "-//W3C//DTD SVG 1.1//EN" "http://www.w3.org/Graphics/SVG/1.1/DTD/svg11.dtd">
<svg xmlns="http://www.w3.org/2000/svg" version="1.1" width="1150px" height="408px" style="shape-rendering:geometricPrecision; text-rendering:geometricPrecision; image-rendering:optimizeQuality; fill-rule:evenodd; clip-rule:evenodd" xmlns:xlink="http://www.w3.org/1999/xlink">
<g><path style="opacity:0.998" fill="#578fca" d="M 166.5,407.5 C 152.833,407.5 139.167,407.5 125.5,407.5C 58.8595,399.368 18.3595,362.368 4,296.5C 2.24923,287.06 0.749227,277.727 -0.5,268.5C -0.5,252.833 -0.5,237.167 -0.5,221.5C 6.97281,138.194 52.3061,92.0269 135.5,83C 189.195,77.0459 237.695,89.8792 281,121.5C 281.5,161.832 281.667,202.165 281.5,242.5C 222.301,242.903 163.801,236.903 106,224.5C 105.207,228.423 105.374,232.256 106.5,236C 164.138,248.697 222.471,254.53 281.5,253.5C 281.667,289.168 281.5,324.835 281,360.5C 248.311,389.345 210.145,405.012 166.5,407.5 Z"/></g>
<g><path style="opacity:1" fill="#578fca" d="M 306.5,88.5 C 354.833,88.5 403.167,88.5 451.5,88.5C 451.5,155.5 451.5,222.5 451.5,289.5C 485.5,289.5 519.5,289.5 553.5,289.5C 553.5,326.833 553.5,364.167 553.5,401.5C 471.167,401.5 388.833,401.5 306.5,401.5C 306.5,297.167 306.5,192.833 306.5,88.5 Z"/></g>
<g><path style="opacity:1" fill="#578fca" d="M 1149.5,88.5 C 1149.5,119.833 1149.5,151.167 1149.5,182.5C 1107.17,182.5 1064.83,182.5 1022.5,182.5C 1022.5,187.167 1022.5,191.833 1022.5,196.5C 1064.83,196.5 1107.17,196.5 1149.5,196.5C 1149.5,228.833 1149.5,261.167 1149.5,293.5C 1107.17,293.5 1064.83,293.5 1022.5,293.5C 1022.5,297.833 1022.5,302.167 1022.5,306.5C 1064.83,306.5 1107.17,306.5 1149.5,306.5C 1149.5,338.167 1149.5,369.833 1149.5,401.5C 1066.83,401.5 984.167,401.5 901.5,401.5C 901.5,297.167 901.5,192.833 901.5,88.5C 984.167,88.5 1066.83,88.5 1149.5,88.5 Z"/></g>
<g><path style="opacity:0.999" fill="#abfff3" d="M 889.5,155.5 C 851.833,155.5 814.167,155.5 776.5,155.5C 776.5,134.167 776.5,112.833 776.5,91.5C 814.167,91.5 851.833,91.5 889.5,91.5C 889.5,112.833 889.5,134.167 889.5,155.5 Z"/></g>
<g><path style="opacity:1" fill="#b681d5" d="M 675.5,206.5 C 674.672,212.987 674.172,219.654 674,226.5C 667.245,219.576 660.411,212.909 653.5,206.5C 624.422,177.922 595.422,149.089 566.5,120C 565.016,119.338 563.683,118.504 562.5,117.5C 562.5,108.833 562.5,100.167 562.5,91.5C 600.167,91.5 637.833,91.5 675.5,91.5C 675.5,129.833 675.5,168.167 675.5,206.5 Z"/></g>
<g><path style="opacity:1" fill="#e491bf" d="M 562.5,117.5 C 563.683,118.504 565.016,119.338 566.5,120C 595.422,149.089 624.422,177.922 653.5,206.5C 623.167,206.5 592.833,206.5 562.5,206.5C 562.5,176.833 562.5,147.167 562.5,117.5 Z"/></g>
<g><path style="opacity:0.999" fill="#80cb93" d="M 776.5,155.5 C 814.167,155.5 851.833,155.5 889.5,155.5C 889.5,172.5 889.5,189.5 889.5,206.5C 859.167,206.5 828.833,206.5 798.5,206.5C 797.833,206.167 797.167,205.833 796.5,205.5C 790.734,198.396 784.067,192.396 776.5,187.5C 776.5,176.833 776.5,166.167 776.5,155.5 Z"/></g>
<g><path style="opacity:0.996" fill="#f3e17e" d="M 776.5,187.5 C 784.067,192.396 790.734,198.396 796.5,205.5C 790.021,206.491 783.354,206.824 776.5,206.5C 776.5,200.167 776.5,193.833 776.5,187.5 Z"/></g>
<g><path style="opacity:1" fill="#f7e89b" d="M 796.5,205.5 C 797.167,205.833 797.833,206.167 798.5,206.5C 828.091,235.985 857.758,265.485 887.5,295C 888.094,295.464 888.761,295.631 889.5,295.5C 889.666,301.509 889.499,307.509 889,313.5C 862.057,352.293 825.89,377.96 780.5,390.5C 779.5,390.5 778.5,390.5 777.5,390.5C 777.832,340.664 777.499,290.997 776.5,241.5C 776.5,236.5 776.5,231.5 776.5,226.5C 776.5,219.833 776.5,213.167 776.5,206.5C 783.354,206.824 790.021,206.491 796.5,205.5 Z"/></g>
<g><path style="opacity:0.998" fill="#eaaed1" d="M 562.5,206.5 C 592.833,206.5 623.167,206.5 653.5,206.5C 660.411,212.909 667.245,219.576 674,226.5C 674.172,219.654 674.672,212.987 675.5,206.5C 675.334,213.175 675.5,219.842 676,226.5C 686.193,236.523 696.026,246.523 705.5,256.5C 657.833,256.5 610.167,256.5 562.5,256.5C 562.5,239.833 562.5,223.167 562.5,206.5 Z"/></g>
<g><path style="opacity:1" fill="#95d5a6" d="M 798.5,206.5 C 828.833,206.5 859.167,206.5 889.5,206.5C 889.5,236.167 889.5,265.833 889.5,295.5C 888.761,295.631 888.094,295.464 887.5,295C 857.758,265.485 828.091,235.985 798.5,206.5 Z"/></g>
<g><path style="opacity:0.999" fill="#eec17b" d="M 776.5,226.5 C 776.5,231.5 776.5,236.5 776.5,241.5C 776.833,291.171 776.5,340.838 775.5,390.5C 773.974,390.994 772.641,391.661 771.5,392.5C 726.844,403.338 683.511,399.171 641.5,380C 636.777,377.978 632.443,375.478 628.5,372.5C 668.186,334.48 707.186,295.814 745.5,256.5C 755.7,246.637 766.034,236.637 776.5,226.5 Z"/></g>
<g><path style="opacity:1" fill="#edcc8d" d="M 776.5,241.5 C 777.499,290.997 777.832,340.664 777.5,390.5C 778.5,390.5 779.5,390.5 780.5,390.5C 777.877,392.265 774.877,392.932 771.5,392.5C 772.641,391.661 773.974,390.994 775.5,390.5C 776.5,340.838 776.833,291.171 776.5,241.5 Z"/></g>
<g><path style="opacity:1" fill="#e07188" d="M 562.5,256.5 C 610.167,256.5 657.833,256.5 705.5,256.5C 718.833,256.5 732.167,256.5 745.5,256.5C 707.186,295.814 668.186,334.48 628.5,372.5C 617.127,367.478 607.127,360.478 598.5,351.5C 593.469,345.469 587.803,340.135 581.5,335.5C 574.403,328.674 568.237,321.007 563,312.5C 562.5,293.836 562.333,275.17 562.5,256.5 Z"/></g>
<g><path style="opacity:0.769" fill="#de8d9e" d="M 581.5,335.5 C 587.803,340.135 593.469,345.469 598.5,351.5C 592.224,346.893 586.557,341.559 581.5,335.5 Z"/></g>
</svg>
